# xmcd CD database file
#
# Track frame offsets:
#	150
#	3515
#	18088
#	37419
#	50810
#	66385
#	82714
#	86613
#	100507
#	115254
#	126964
#	140369
#	156276
#	171050
#	191301
#	207785
#
# Disc length: 3003 seconds
#
# Revision: 2
# Processed by: cddbd v1.5.2PL0 Copyright (c) Steve Scherf et al.
# Submitted via: jetAudio 7
#
DISCID=cf0bb910
DTITLE=LOPTIMIST - Mind Expander
DYEAR=2008
DGENRE=Hip-Hop
TTITLE0=Intro
TTITLE1=Triple Flow
TTITLE2=Amnesia
TTITLE3=집시여행
TTITLE4=One Night Dream
TTITLE5=이빨
TTITLE6=Ticket
TTITLE7=Ticket to London
TTITLE8=널 사랑한 내가 밉다
TTITLE9=Coasal
TTITLE10=금메달리스트
TTITLE11=갈증
TTITLE12=D.A.R.K
TTITLE13=Ghostwriter
TTITLE14='摸 편지
TTITLE15=Dedicated to MC
EXTD=
EXTT0=
EXTT1=
EXTT2=
EXTT3=
EXTT4=
EXTT5=
EXTT6=
EXTT7=
EXTT8=
EXTT9=
EXTT10=
EXTT11=
EXTT12=
EXTT13=
EXTT14=
EXTT15=
PLAYORDER=
